<mxfile host="Electron" modified="2024-01-13T20:53:00.438Z" agent="Mozilla/5.0 (X11; Linux x86_64) AppleWebKit/537.36 (KHTML, like Gecko) draw.io/22.1.18 Chrome/120.0.6099.199 Electron/28.1.2 Safari/537.36" etag="Tpprv0C2FDZFw0LPpR0q" version="22.1.18" type="device">
  <diagram name="Page-1" id="8v6Wne5SSQdXL1QZegW_">
    <mxGraphModel dx="1408" dy="581" grid="1" gridSize="10" guides="1" tooltips="1" connect="1" arrows="1" fold="1" page="1" pageScale="1" pageWidth="850" pageHeight="1100" math="0" shadow="0">
      <root>
        <mxCell id="0" />
        <mxCell id="1" parent="0" />
        <mxCell id="JfjzeEjMghrUWF2e_zT4-13" value="" style="edgeStyle=orthogonalEdgeStyle;shape=connector;rounded=0;sketch=1;jiggle=2;curveFitting=1;orthogonalLoop=1;jettySize=auto;html=1;labelBackgroundColor=default;strokeColor=#82b366;align=center;verticalAlign=middle;fontFamily=Architects Daughter;fontSize=12;fontColor=default;endArrow=classic;fillColor=#d5e8d4;" parent="1" source="JfjzeEjMghrUWF2e_zT4-11" target="JfjzeEjMghrUWF2e_zT4-12" edge="1">
          <mxGeometry relative="1" as="geometry" />
        </mxCell>
        <mxCell id="JfjzeEjMghrUWF2e_zT4-11" value="Start" style="ellipse;whiteSpace=wrap;html=1;rounded=0;sketch=1;jiggle=2;curveFitting=1;strokeColor=#82b366;align=center;verticalAlign=middle;fontFamily=Architects Daughter;fontSize=12;fontColor=default;fillColor=#d5e8d4;" parent="1" vertex="1">
          <mxGeometry x="330" y="40" width="120" height="80" as="geometry" />
        </mxCell>
        <mxCell id="JfjzeEjMghrUWF2e_zT4-36" value="" style="edgeStyle=orthogonalEdgeStyle;shape=connector;rounded=0;sketch=1;jiggle=2;curveFitting=1;orthogonalLoop=1;jettySize=auto;html=1;labelBackgroundColor=default;strokeColor=#82b366;align=center;verticalAlign=middle;fontFamily=Architects Daughter;fontSize=12;fontColor=default;endArrow=classic;fillColor=#d5e8d4;" parent="1" source="JfjzeEjMghrUWF2e_zT4-12" target="JfjzeEjMghrUWF2e_zT4-35" edge="1">
          <mxGeometry relative="1" as="geometry" />
        </mxCell>
        <mxCell id="JfjzeEjMghrUWF2e_zT4-12" value="word_1, word_2" style="shape=parallelogram;perimeter=parallelogramPerimeter;whiteSpace=wrap;html=1;fixedSize=1;rounded=0;sketch=1;jiggle=2;curveFitting=1;strokeColor=#82b366;align=center;verticalAlign=middle;fontFamily=Architects Daughter;fontSize=12;fontColor=default;fillColor=#d5e8d4;" parent="1" vertex="1">
          <mxGeometry x="330" y="160" width="120" height="60" as="geometry" />
        </mxCell>
        <mxCell id="JfjzeEjMghrUWF2e_zT4-34" value="" style="edgeStyle=orthogonalEdgeStyle;shape=connector;rounded=0;sketch=1;jiggle=2;curveFitting=1;orthogonalLoop=1;jettySize=auto;html=1;labelBackgroundColor=default;strokeColor=#82b366;align=center;verticalAlign=middle;fontFamily=Architects Daughter;fontSize=12;fontColor=default;endArrow=classic;fillColor=#d5e8d4;" parent="1" source="JfjzeEjMghrUWF2e_zT4-16" target="JfjzeEjMghrUWF2e_zT4-33" edge="1">
          <mxGeometry relative="1" as="geometry" />
        </mxCell>
        <mxCell id="JfjzeEjMghrUWF2e_zT4-16" value="i = 0&lt;br&gt;c = &quot;&quot;&lt;br&gt;new_word = &quot;&quot;" style="whiteSpace=wrap;html=1;rounded=0;sketch=1;jiggle=2;curveFitting=1;strokeColor=#82b366;align=center;verticalAlign=middle;fontFamily=Architects Daughter;fontSize=12;fontColor=default;fillColor=#d5e8d4;" parent="1" vertex="1">
          <mxGeometry x="330" y="360" width="120" height="60" as="geometry" />
        </mxCell>
        <mxCell id="JfjzeEjMghrUWF2e_zT4-38" value="" style="edgeStyle=orthogonalEdgeStyle;shape=connector;rounded=0;sketch=1;jiggle=2;curveFitting=1;orthogonalLoop=1;jettySize=auto;html=1;labelBackgroundColor=default;strokeColor=#82b366;align=center;verticalAlign=middle;fontFamily=Architects Daughter;fontSize=12;fontColor=default;endArrow=classic;fillColor=#d5e8d4;" parent="1" source="JfjzeEjMghrUWF2e_zT4-33" edge="1">
          <mxGeometry relative="1" as="geometry">
            <mxPoint x="390" y="590" as="targetPoint" />
          </mxGeometry>
        </mxCell>
        <mxCell id="SNL7xtWINw7hLz0dww6J-8" value="Yes" style="edgeLabel;html=1;align=center;verticalAlign=middle;resizable=0;points=[];fontFamily=Architects Daughter;" vertex="1" connectable="0" parent="JfjzeEjMghrUWF2e_zT4-38">
          <mxGeometry x="-0.2473" y="-1" relative="1" as="geometry">
            <mxPoint as="offset" />
          </mxGeometry>
        </mxCell>
        <mxCell id="SNL7xtWINw7hLz0dww6J-18" value="" style="edgeStyle=orthogonalEdgeStyle;shape=connector;rounded=0;sketch=1;jiggle=2;curveFitting=1;orthogonalLoop=1;jettySize=auto;html=1;labelBackgroundColor=default;strokeColor=#82b366;align=center;verticalAlign=middle;fontFamily=Architects Daughter;fontSize=12;fontColor=default;endArrow=classic;fillColor=#d5e8d4;" edge="1" parent="1" source="JfjzeEjMghrUWF2e_zT4-33" target="SNL7xtWINw7hLz0dww6J-17">
          <mxGeometry relative="1" as="geometry" />
        </mxCell>
        <mxCell id="SNL7xtWINw7hLz0dww6J-19" value="No" style="edgeLabel;html=1;align=center;verticalAlign=middle;resizable=0;points=[];fontSize=12;fontFamily=Architects Daughter;fontColor=default;" vertex="1" connectable="0" parent="SNL7xtWINw7hLz0dww6J-18">
          <mxGeometry x="-0.7195" y="-2" relative="1" as="geometry">
            <mxPoint as="offset" />
          </mxGeometry>
        </mxCell>
        <mxCell id="JfjzeEjMghrUWF2e_zT4-33" value="i &amp;lt; len(&lt;br&gt;sml_word&lt;br&gt;)" style="rhombus;whiteSpace=wrap;html=1;fontFamily=Architects Daughter;fillColor=#d5e8d4;strokeColor=#82b366;rounded=0;sketch=1;jiggle=2;curveFitting=1;" parent="1" vertex="1">
          <mxGeometry x="350" y="460" width="80" height="80" as="geometry" />
        </mxCell>
        <mxCell id="JfjzeEjMghrUWF2e_zT4-37" value="" style="edgeStyle=orthogonalEdgeStyle;shape=connector;rounded=0;sketch=1;jiggle=2;curveFitting=1;orthogonalLoop=1;jettySize=auto;html=1;labelBackgroundColor=default;strokeColor=#82b366;align=center;verticalAlign=middle;fontFamily=Architects Daughter;fontSize=12;fontColor=default;endArrow=classic;fillColor=#d5e8d4;" parent="1" source="JfjzeEjMghrUWF2e_zT4-35" target="JfjzeEjMghrUWF2e_zT4-16" edge="1">
          <mxGeometry relative="1" as="geometry" />
        </mxCell>
        <mxCell id="JfjzeEjMghrUWF2e_zT4-35" value="find smallest word" style="whiteSpace=wrap;html=1;fontFamily=Architects Daughter;fillColor=#d5e8d4;strokeColor=#82b366;rounded=0;sketch=1;jiggle=2;curveFitting=1;" parent="1" vertex="1">
          <mxGeometry x="330" y="260" width="120" height="60" as="geometry" />
        </mxCell>
        <mxCell id="SNL7xtWINw7hLz0dww6J-1" value="" style="edgeStyle=orthogonalEdgeStyle;shape=connector;rounded=0;sketch=1;jiggle=2;curveFitting=1;orthogonalLoop=1;jettySize=auto;html=1;labelBackgroundColor=default;strokeColor=#82b366;align=center;verticalAlign=middle;fontFamily=Architects Daughter;fontSize=12;fontColor=default;endArrow=classic;fillColor=#d5e8d4;" edge="1" parent="1" source="SNL7xtWINw7hLz0dww6J-5" target="SNL7xtWINw7hLz0dww6J-6">
          <mxGeometry relative="1" as="geometry" />
        </mxCell>
        <mxCell id="SNL7xtWINw7hLz0dww6J-2" value="Yes" style="edgeLabel;html=1;align=center;verticalAlign=middle;resizable=0;points=[];fontSize=12;fontFamily=Architects Daughter;fontColor=default;" vertex="1" connectable="0" parent="SNL7xtWINw7hLz0dww6J-1">
          <mxGeometry x="-0.058" y="-2" relative="1" as="geometry">
            <mxPoint as="offset" />
          </mxGeometry>
        </mxCell>
        <mxCell id="SNL7xtWINw7hLz0dww6J-3" style="edgeStyle=orthogonalEdgeStyle;shape=connector;rounded=0;sketch=1;jiggle=2;curveFitting=1;orthogonalLoop=1;jettySize=auto;html=1;entryX=0.5;entryY=0;entryDx=0;entryDy=0;labelBackgroundColor=default;strokeColor=#82b366;align=center;verticalAlign=middle;fontFamily=Architects Daughter;fontSize=12;fontColor=default;endArrow=classic;fillColor=#d5e8d4;" edge="1" parent="1" source="SNL7xtWINw7hLz0dww6J-5" target="SNL7xtWINw7hLz0dww6J-7">
          <mxGeometry relative="1" as="geometry" />
        </mxCell>
        <mxCell id="SNL7xtWINw7hLz0dww6J-4" value="No" style="edgeLabel;html=1;align=center;verticalAlign=middle;resizable=0;points=[];fontSize=12;fontFamily=Architects Daughter;fontColor=default;" vertex="1" connectable="0" parent="SNL7xtWINw7hLz0dww6J-3">
          <mxGeometry x="0.0012" y="1" relative="1" as="geometry">
            <mxPoint as="offset" />
          </mxGeometry>
        </mxCell>
        <mxCell id="SNL7xtWINw7hLz0dww6J-5" value="i % 2 == 0" style="rhombus;whiteSpace=wrap;html=1;fontFamily=Architects Daughter;fillColor=#d5e8d4;strokeColor=#82b366;rounded=0;sketch=1;jiggle=2;curveFitting=1;" vertex="1" parent="1">
          <mxGeometry x="350" y="590" width="80" height="80" as="geometry" />
        </mxCell>
        <mxCell id="SNL7xtWINw7hLz0dww6J-13" style="edgeStyle=orthogonalEdgeStyle;shape=connector;rounded=0;sketch=1;jiggle=2;curveFitting=1;orthogonalLoop=1;jettySize=auto;html=1;entryX=0;entryY=0.5;entryDx=0;entryDy=0;labelBackgroundColor=default;strokeColor=#82b366;align=center;verticalAlign=middle;fontFamily=Architects Daughter;fontSize=12;fontColor=default;endArrow=classic;fillColor=#d5e8d4;" edge="1" parent="1" source="SNL7xtWINw7hLz0dww6J-6" target="SNL7xtWINw7hLz0dww6J-11">
          <mxGeometry relative="1" as="geometry" />
        </mxCell>
        <mxCell id="SNL7xtWINw7hLz0dww6J-6" value="new_word.append(&lt;br&gt;word_1[i]&lt;br&gt;)" style="whiteSpace=wrap;html=1;fontFamily=Architects Daughter;fillColor=#d5e8d4;strokeColor=#82b366;rounded=0;sketch=1;jiggle=2;curveFitting=1;" vertex="1" parent="1">
          <mxGeometry x="232.5" y="750" width="120" height="60" as="geometry" />
        </mxCell>
        <mxCell id="SNL7xtWINw7hLz0dww6J-14" style="edgeStyle=orthogonalEdgeStyle;shape=connector;rounded=0;sketch=1;jiggle=2;curveFitting=1;orthogonalLoop=1;jettySize=auto;html=1;entryX=1;entryY=0.5;entryDx=0;entryDy=0;labelBackgroundColor=default;strokeColor=#82b366;align=center;verticalAlign=middle;fontFamily=Architects Daughter;fontSize=12;fontColor=default;endArrow=classic;fillColor=#d5e8d4;" edge="1" parent="1" source="SNL7xtWINw7hLz0dww6J-7" target="SNL7xtWINw7hLz0dww6J-11">
          <mxGeometry relative="1" as="geometry" />
        </mxCell>
        <mxCell id="SNL7xtWINw7hLz0dww6J-7" value="new_word.append(&lt;br&gt;word_2[i]&lt;br&gt;)" style="whiteSpace=wrap;html=1;fontFamily=Architects Daughter;fillColor=#d5e8d4;strokeColor=#82b366;rounded=0;sketch=1;jiggle=2;curveFitting=1;" vertex="1" parent="1">
          <mxGeometry x="427.5" y="750" width="120" height="60" as="geometry" />
        </mxCell>
        <mxCell id="SNL7xtWINw7hLz0dww6J-16" style="edgeStyle=orthogonalEdgeStyle;shape=connector;rounded=0;sketch=1;jiggle=2;curveFitting=1;orthogonalLoop=1;jettySize=auto;html=1;entryX=0;entryY=0.5;entryDx=0;entryDy=0;labelBackgroundColor=default;strokeColor=#82b366;align=center;verticalAlign=middle;fontFamily=Architects Daughter;fontSize=12;fontColor=default;endArrow=classic;fillColor=#d5e8d4;" edge="1" parent="1" source="SNL7xtWINw7hLz0dww6J-11" target="JfjzeEjMghrUWF2e_zT4-33">
          <mxGeometry relative="1" as="geometry">
            <Array as="points">
              <mxPoint x="140" y="890" />
              <mxPoint x="140" y="500" />
            </Array>
          </mxGeometry>
        </mxCell>
        <mxCell id="SNL7xtWINw7hLz0dww6J-11" value="i += 1" style="whiteSpace=wrap;html=1;rounded=0;sketch=1;jiggle=2;curveFitting=1;strokeColor=#82b366;align=center;verticalAlign=middle;fontFamily=Architects Daughter;fontSize=12;fontColor=default;fillColor=#d5e8d4;" vertex="1" parent="1">
          <mxGeometry x="340" y="860" width="120" height="60" as="geometry" />
        </mxCell>
        <mxCell id="SNL7xtWINw7hLz0dww6J-17" value="new_word.append(&lt;br&gt;bgs_word[i]&lt;br&gt;)" style="whiteSpace=wrap;html=1;fontFamily=Architects Daughter;fillColor=#d5e8d4;strokeColor=#82b366;rounded=0;sketch=1;jiggle=2;curveFitting=1;" vertex="1" parent="1">
          <mxGeometry x="580" y="570" width="120" height="60" as="geometry" />
        </mxCell>
      </root>
    </mxGraphModel>
  </diagram>
</mxfile>
